<svg id="Android_B" xmlns="http://www.w3.org/2000/svg" width="18.631" height="22.322" viewBox="0 0 18.631 22.322">
  <defs>
    <style>
      .cls-1 {
        fill: #fff;
      }
    </style>
  </defs>
  <g id="Group_181" data-name="Group 181" transform="translate(0 7.383)">
    <path id="Path_69" data-name="Path 69" class="cls-1" d="M11.876,26.209V20.548a1.383,1.383,0,1,1,2.765,0v5.661a1.383,1.383,0,0,1-2.765,0Z" transform="translate(-11.876 -19.164)"/>
  </g>
  <g id="Group_182" data-name="Group 182" transform="translate(15.874 7.383)">
    <path id="Path_70" data-name="Path 70" class="cls-1" d="M32.518,26.209V20.548a1.378,1.378,0,1,1,2.757,0v5.661a1.378,1.378,0,1,1-2.757,0Z" transform="translate(-32.518 -19.164)"/>
  </g>
  <path id="Path_71" data-name="Path 71" class="cls-1" d="M28.081,19.776c.008-.152-.029-.2-.189-.2H16.4c-.166,0-.209.047-.209.214.009,2.438,0,8.27.009,8.747a1.139,1.139,0,0,0,1.138,1.138c.352,0,.7.012,1.042,0a.218.218,0,0,1,.1.015V32.9a1.366,1.366,0,1,0,2.732,0V29.7a1.129,1.129,0,0,1,.3-.02h1.557V32.9a1.364,1.364,0,1,0,2.728,0V29.681a.23.23,0,0,1,.106-.015c.345.015.691.012,1.043,0a1.2,1.2,0,0,0,.373-.053,1.284,1.284,0,0,0,.769-1.221S28.078,22.648,28.081,19.776Z" transform="translate(-12.842 -11.956)"/>
  <path id="Path_72" data-name="Path 72" class="cls-1" d="M25,11.891l1.171-2.057a.207.207,0,0,0-.076-.277.2.2,0,0,0-.272.076l-1.19,2.088a6.416,6.416,0,0,0-5.052.01l-1.2-2.1a.2.2,0,0,0-.275-.076.21.21,0,0,0-.074.277l1.178,2.075A5.367,5.367,0,0,0,16.2,16.637H28.048A5.377,5.377,0,0,0,25,11.891ZM19.347,14.7a.608.608,0,1,1,.6-.6A.607.607,0,0,1,19.347,14.7Zm5.587,0a.607.607,0,1,1,.6-.6A.607.607,0,0,1,24.934,14.7Z" transform="translate(-12.842 -9.531)"/>
</svg>
