<svg id="Apple_iOS_G" xmlns="http://www.w3.org/2000/svg" width="22" height="27.019" viewBox="0 0 22 27.019">
  <defs>
    <style>
      .cls-1 {
        fill: #b2c4d5;
      }
    </style>
  </defs>
  <path id="Path_90" data-name="Path 90" class="cls-1" d="M30.989,24.432a6.121,6.121,0,0,1,2.919-5.145,6.287,6.287,0,0,0-4.935-2.675c-2.1-.214-4.111,1.233-5.177,1.233s-2.713-1.206-4.459-1.171a6.6,6.6,0,0,0-5.588,3.387c-2.387,4.132-.613,10.258,1.716,13.612,1.128,1.642,2.485,3.483,4.257,3.422,1.713-.073,2.356-1.108,4.428-1.108s2.656,1.108,4.466,1.072c1.836-.037,3-1.673,4.128-3.318a14.792,14.792,0,0,0,1.87-3.842,5.989,5.989,0,0,1-3.627-5.467Zm-3.394-10.04A6.006,6.006,0,0,0,29,10.077a6.046,6.046,0,0,0-3.983,2.045,5.66,5.66,0,0,0-1.435,4.18,5.023,5.023,0,0,0,4.012-1.91Zm0,0" transform="translate(-12.615 -10.077)"/>
</svg>
