<svg id="GooglePlay_B" xmlns="http://www.w3.org/2000/svg" width="21.375" height="23.784" viewBox="0 0 21.375 23.784">
  <defs>
    <style>
      .cls-1 {
        fill: #fff;
      }
    </style>
  </defs>
  <path id="Path_460" data-name="Path 460" class="cls-1" d="M13.814,11.071a2.171,2.171,0,0,0-.19.929V32.474a2.179,2.179,0,0,0,.189.928L24.977,22.236Z" transform="translate(-13.624 -10.345)"/>
  <path id="Path_461" data-name="Path 461" class="cls-1" d="M25.715,21.51l3.521-3.521L16.1,10.528a1.669,1.669,0,0,0-1.549-.18Z" transform="translate(-13.751 -10.23)"/>
  <path id="Path_462" data-name="Path 462" class="cls-1" d="M36.015,22.081l-4.142-2.353-3.688,3.688,3.69,3.69,4.14-2.352C37.309,24.019,37.309,22.816,36.015,22.081Z" transform="translate(-15.61 -11.526)"/>
  <path id="Path_463" data-name="Path 463" class="cls-1" d="M25.715,24.706,14.553,35.87a1.67,1.67,0,0,0,1.551-.18l13.134-7.462Z" transform="translate(-13.751 -12.204)"/>
</svg>
