<svg xmlns="http://www.w3.org/2000/svg" width="83" height="83" viewBox="0 0 83 83">
    <defs>
        <style>
            .cls-3{fill:#fff}
        </style>
    </defs>
    <g id="Pakan_Logo_TYPES-03" opacity="0.87" transform="translate(3 2.824)">
        <circle id="Ellipse_189" cx="38.5" cy="38.5" r="38.5" fill="none" stroke="#fff" stroke-width="6px" transform="translate(0 0.176)"/>
        <g id="Group_855" transform="translate(12.243 24.351)">
            <g id="Group_854">
                <g id="Group_853">
                    <g id="Group_846" transform="translate(3.125 23.921)">
                        <path id="Path_931" d="M355.574 387.942a.615.615 0 1 0-.617-.617.615.615 0 0 0 .617.617z" class="cls-3" transform="translate(-324.826 -385.551)"/>
                        <path id="Path_932" d="M314.214 387.932c.048-.042.125-.124.215-.213.091.089.171.171.215.213a.616.616 0 0 0 .871-.871c-.123-.123-.525-.527-.649-.649a.611.611 0 0 0-.437-.182.619.619 0 0 0-.436.182c-.122.122-.525.526-.651.649a.617.617 0 0 0 .873.871z" class="cls-3" transform="translate(-288.344 -385.131)"/>
                        <path id="Path_933" d="M233.856 387.932c.044-.042.124-.124.212-.213.092.089.172.171.215.213a.619.619 0 0 0 .872 0 .61.61 0 0 0 0-.871l-.648-.649a.621.621 0 0 0-.438-.182.606.606 0 0 0-.434.182c-.126.122-.527.526-.649.649a.616.616 0 0 0 .871.871z" class="cls-3" transform="translate(-218.197 -385.131)"/>
                        <path id="Path_934" d="M163.18 430.938h-1.017a.617.617 0 0 0 0 1.234h1.017a.617.617 0 0 0 0-1.234z" class="cls-3" transform="translate(-155.999 -424.156)"/>
                        <path id="Path_935" d="M124.444 401.973a.62.62 0 0 0 0 .873.493.493 0 0 1-.35.84h-3.277a.615.615 0 0 0 0 1.231h1a1.242 1.242 0 0 1-.4.614 1.361 1.361 0 0 1-1.908-.082 1.312 1.312 0 0 1-.383-.951 1.394 1.394 0 0 1 .432-.993.617.617 0 0 0-.853-.891 2.651 2.651 0 0 0-.811 1.868 2.536 2.536 0 0 0 .742 1.835 2.642 2.642 0 0 0 1.875.794 2.6 2.6 0 0 0 1.719-.654 2.275 2.275 0 0 0 .83-1.54h1.039a1.706 1.706 0 0 0 1.221-.5 1.726 1.726 0 0 0 0-2.439.613.613 0 0 0-.876-.005z" class="cls-3" transform="translate(-117.889 -398.714)"/>
                        <path id="Path_936" d="M209.761 382.606l-1.312-1.311a2.6 2.6 0 0 0-2.429-.7.616.616 0 1 0 .274 1.2 1.371 1.371 0 0 1 1.281.368l.171.171a1.36 1.36 0 0 1-.737.214h-1.822a.494.494 0 0 1-.493-.491.617.617 0 0 0-1.234 0 .492.492 0 0 1-.984 0 .616.616 0 0 0-1.232 0 .493.493 0 0 1-.985 0 .617.617 0 0 0-1.234 0 .494.494 0 0 1-.478.49h-.217a.5.5 0 0 1-.48-.488v-.006a1.711 1.711 0 0 0-.506-1.222l-.915-.915 1.285-1.286a.615.615 0 1 0-.871-.869l-1.722 1.719a.618.618 0 0 0 0 .872l1.351 1.35a.489.489 0 0 1 .148.349v.006a.5.5 0 0 1-.5.487h-1.211a.492.492 0 0 1-.433-.487.616.616 0 0 0-1.233 0 .492.492 0 0 1-.985 0 .616.616 0 0 0-1.232 0 .492.492 0 0 1-.985 0 .617.617 0 0 0-1.234 0 .494.494 0 0 1-.491.491h-.542a3.434 3.434 0 0 0-.247-1l-.011-.025a2.6 2.6 0 0 0-.469-.675 1.707 1.707 0 0 0-2.878 1.208 1.726 1.726 0 0 0 1.724 1.726h.344a1.559 1.559 0 0 1-1.335.583.617.617 0 0 0-.088 1.23c.068.006.134.008.2.008a2.786 2.786 0 0 0 2.579-1.73.62.62 0 0 0 .035-.092h.7a1.713 1.713 0 0 0 1.09-.405 1.715 1.715 0 0 0 2.215 0 1.725 1.725 0 0 0 2.222 0 1.7 1.7 0 0 0 1.107.405.627.627 0 0 0 .095-.008h1.056a1.723 1.723 0 0 0 1.109-.4 1.705 1.705 0 0 0 1.066.408h.264a1.722 1.722 0 0 0 1.081-.4 1.718 1.718 0 0 0 2.217 0 1.718 1.718 0 0 0 2.217 0 1.714 1.714 0 0 0 1.11.405h1.822a2.609 2.609 0 0 0 1.622-.562l.258.261a.617.617 0 1 0 .872-.873zm-23.864-.059a.493.493 0 0 1-.491-.491.454.454 0 0 1 .491-.444.551.551 0 0 1 .439.3 2.041 2.041 0 0 1 .206.635z" class="cls-3" transform="translate(-175.748 -377.582)"/>
                    </g>
                    <g id="Group_847" transform="translate(3.262 3.97)">
                        <path id="Path_937" d="M119.812 222.3a.845.845 0 1 1 .845-.845.846.846 0 0 1-.845.845zm0-1.636a.792.792 0 1 0 .792.792.793.793 0 0 0-.792-.788z" class="cls-3" transform="translate(-118.967 -220.615)"/>
                    </g>
                    <g id="Group_848" transform="translate(3.736 4.309)">
                        <path id="Path_938" d="M123.174 223.282a.333.333 0 0 1 .226.071.244.244 0 0 1 .082.194.307.307 0 0 1-.042.162.215.215 0 0 1-.134.095.178.178 0 0 1 .072.029.157.157 0 0 1 .044.047.219.219 0 0 1 .024.062.634.634 0 0 1 .012.071v.075a.691.691 0 0 0 .007.075.443.443 0 0 0 .016.07.168.168 0 0 0 .032.059h-.15a.083.083 0 0 1-.019-.043.465.465 0 0 1-.006-.06v-.071a.491.491 0 0 0-.009-.075q-.006-.037-.014-.07a.161.161 0 0 0-.027-.058.135.135 0 0 0-.048-.04.176.176 0 0 0-.079-.015h-.329v.432h-.132v-1.011h.476zm.028.459a.2.2 0 0 0 .074-.028.151.151 0 0 0 .051-.055.184.184 0 0 0 .019-.09.181.181 0 0 0-.043-.125.174.174 0 0 0-.137-.048h-.334v.353h.281a.506.506 0 0 0 .087-.007z" class="cls-3" transform="translate(-122.698 -223.282)"/>
                    </g>
                    <g id="Group_852">
                        <path id="Path_939" fill="#fff" fill-rule="evenodd" d="M411.284 380.592a2.556 2.556 0 0 0-3.615-3.615l-.749.749-.749-.749a2.556 2.556 0 0 0-3.615 3.615l4.364 4.364 4.365-4.365z" transform="translate(-362.595 -352.481)"/>
                        <g id="Group_849" transform="translate(18.072 0)">
                            <path id="Path_940" d="M243.7 211.494a8.218 8.218 0 0 1-8.208-8.208v-11.4a2.507 2.507 0 0 1 5.015 0v11.4a3.194 3.194 0 1 0 3.194-3.193 2.508 2.508 0 0 1-1.773-4.28l5.7-5.7a2.507 2.507 0 0 1 3.546 3.546l-2.85 2.85a8.206 8.206 0 0 1-4.624 14.987z" class="cls-3" transform="translate(-235.492 -189.376)"/>
                        </g>
                        <g id="Group_850" transform="translate(36.125)">
                            <path id="Path_941" d="M385.739 211.494a8.209 8.209 0 0 1-8.208-8.208v-11.4a2.507 2.507 0 0 1 5.015 0v11.4a3.194 3.194 0 1 0 5.454-2.259 2.507 2.507 0 1 1 3.546-3.546 8.209 8.209 0 0 1-5.8 14.013z" class="cls-3" transform="translate(-377.531 -189.376)"/>
                        </g>
                        <g id="Group_851" transform="translate(0 7.364)">
                            <path id="Path_942" d="M107.317 248.05a2.508 2.508 0 0 0-3.546 3.546 3.193 3.193 0 1 1-5.429 2.632s-.019-.2-.021-.376l1.661 1.661a2.255 2.255 0 0 0 3.125-3.25l-4.216-4.217a2.255 2.255 0 0 0-3.189 0 1.061 1.061 0 0 0-.083.1c-.021.022-.041.045-.06.068a8.207 8.207 0 1 0 11.759-.157z" class="cls-3" transform="translate(-93.304 -247.315)"/>
                        </g>
                    </g>
                </g>
            </g>
        </g>
        <g id="Group_856" transform="translate(33.929 64.51)">
            <path id="Path_943" d="M264.157 508.587q0-.51-.018-.867c-.011-.236-.026-.435-.045-.593a3.661 3.661 0 0 0-.059-.387c-.021-.1-.04-.183-.056-.249a1.322 1.322 0 0 1-.041-.2.619.619 0 0 1 .006-.211.3.3 0 0 1 .078-.166.339.339 0 0 1 .217-.09c.194-.018.292.129.356.365.009.039.028.135.056.286s.055.328.08.534.043.422.056.651a4.355 4.355 0 0 1 0 .631 1.651 1.651 0 0 1-.075.494.273.273 0 0 1-.262.178.258.258 0 0 1-.208-.089.472.472 0 0 1-.085-.287z" class="cls-3" transform="translate(-263.931 -505.76)"/>
            <path id="Path_944" d="M276.976 506.3a1.414 1.414 0 0 1-.037.323 1.014 1.014 0 0 1-.117.3.655.655 0 0 1-.207.218.545.545 0 0 1-.31.085.434.434 0 0 1-.206-.052.918.918 0 0 1-.167-.112.629.629 0 0 1-.244.2.385.385 0 0 1-.328-.034c0 .053.015.135.033.245s.034.234.049.368.025.272.031.413a2.483 2.483 0 0 1 .007.392.677.677 0 0 1-.079.285.207.207 0 0 1-.229.123.313.313 0 0 1-.227-.1.4.4 0 0 1-.062-.243c0-.192 0-.374-.012-.544a4.824 4.824 0 0 0-.05-.5c-.025-.164-.058-.327-.1-.489a4.769 4.769 0 0 0-.158-.5c-.023-.064-.045-.137-.069-.22a.909.909 0 0 1-.028-.267.319.319 0 0 1 .068-.195.291.291 0 0 1 .228-.079.281.281 0 0 1 .224.122 1.533 1.533 0 0 1 .134.236 2.342 2.342 0 0 0 .127.237.21.21 0 0 0 .187.106.158.158 0 0 0 .133-.051.316.316 0 0 0 .048-.128 1.247 1.247 0 0 0 .015-.166.7.7 0 0 1 .025-.166.273.273 0 0 1 .082-.127.282.282 0 0 1 .19-.053.221.221 0 0 1 .153.045.228.228 0 0 1 .07.114.626.626 0 0 1 .023.149 1.164 1.164 0 0 0 .012.149.261.261 0 0 0 .04.115.122.122 0 0 0 .109.045.078.078 0 0 0 .077-.045.291.291 0 0 0 .028-.109c0-.043.005-.091.008-.142a.405.405 0 0 1 .026-.141.257.257 0 0 1 .069-.11.209.209 0 0 1 .146-.044.242.242 0 0 1 .214.109.414.414 0 0 1 .074.238z" class="cls-3" transform="translate(-273.129 -505.848)"/>
            <path id="Path_945" d="M300.724 506.339a.424.424 0 0 1-.139.291.878.878 0 0 1-.347.2 1.344 1.344 0 0 1-.464.063 1.159 1.159 0 0 1-.5-.132c.024.212.045.424.067.634a4.576 4.576 0 0 1 .025.569 1.228 1.228 0 0 1-.071.432.242.242 0 0 1-.254.134.255.255 0 0 1-.206-.086.475.475 0 0 1-.072-.3c0-.3-.006-.548-.02-.751s-.031-.372-.051-.511a2.811 2.811 0 0 0-.075-.351c-.029-.094-.057-.18-.086-.261a1.225 1.225 0 0 1-.057-.189.7.7 0 0 1-.021-.218.327.327 0 0 1 .065-.178.3.3 0 0 1 .383-.063.456.456 0 0 1 .128.135c.044.078.064.145.1.2a1.124 1.124 0 0 0 .123.145q0-.766.6-.765a.9.9 0 0 1 .246.032.707.707 0 0 1 .2.087.428.428 0 0 1 .132.129.3.3 0 0 1 .047.159.131.131 0 0 1-.047.119.209.209 0 0 1-.121.028 1.434 1.434 0 0 1-.168-.018 1.163 1.163 0 0 0-.185-.016.18.18 0 0 0-.151.068.223.223 0 0 0-.053.146.17.17 0 0 0 .065.144.244.244 0 0 0 .153.05.372.372 0 0 0 .127-.022l.127-.05c.043-.018.085-.034.127-.049a.366.366 0 0 1 .126-.023.276.276 0 0 1 .183.057.187.187 0 0 1 .064.161z" class="cls-3" transform="translate(-294.066 -505.34)"/>
            <path id="Path_946" d="M320.16 509.793a.541.541 0 0 1-.377-.13.6.6 0 0 1-.453.21.567.567 0 0 1-.3-.078.686.686 0 0 1-.206-.2.823.823 0 0 1-.119-.27 1.206 1.206 0 0 1-.037-.293 1.954 1.954 0 0 1 .164-.758 3.992 3.992 0 0 1 .5-.837.343.343 0 0 1-.131-.2.33.33 0 0 1 .017-.2.383.383 0 0 1 .127-.154.332.332 0 0 1 .2-.061.368.368 0 0 1 .179.084 2.2 2.2 0 0 1 .269.234 4.137 4.137 0 0 1 .3.346 3.205 3.205 0 0 1 .286.422 2.751 2.751 0 0 1 .212.464 1.439 1.439 0 0 1 .082.472 1.242 1.242 0 0 1-.044.323 1 1 0 0 1-.13.3.759.759 0 0 1-.225.227.571.571 0 0 1-.314.099zm.2-.988a.78.78 0 0 0-.067-.3 1.87 1.87 0 0 0-.166-.31 2.789 2.789 0 0 0-.213-.284 2.86 2.86 0 0 0-.214-.221c-.054.077-.113.165-.179.266a3.6 3.6 0 0 0-.185.316 2.99 2.99 0 0 0-.143.328.865.865 0 0 0-.061.3q0 .248.219.249a.2.2 0 0 0 .125-.037.489.489 0 0 0 .087-.085 1.029 1.029 0 0 1 .074-.084.129.129 0 0 1 .1-.037.121.121 0 0 1 .091.037c.022.026.046.051.071.079a.667.667 0 0 0 .087.08.212.212 0 0 0 .125.037c.168-.001.252-.111.252-.334z" class="cls-3" transform="translate(-311.708 -506.643)"/>
        </g>
    </g>
</svg>
