<svg xmlns="http://www.w3.org/2000/svg" width="67.312" height="64.618" viewBox="0 0 67.312 64.618">
  <defs>
    <style>
      .cls-1 {
        fill: none;
        stroke: #b3b3b5;
        stroke-linecap: round;
        stroke-linejoin: round;
        stroke-miterlimit: 10;
        stroke-width: 2px;
      }
    </style>
  </defs>
  <g id="Spotting_G" transform="translate(1.003 1.022)">
    <path id="Path_805" data-name="Path 805" class="cls-1" d="M19.224,31.53c.931-3.171-3.763-2.113-4.961-6-1.447-4.688,4.067-7.562,7.673-3.624,1.488,1.622,2.74.64,2.734-.885-.006-1.289.323-2.419,1.276-2.817,2.83-1.176,3.527,1.624,5.151,1.379,3.591-.542,2.341-4.546.87-7.721C30.621,8.959,34.522,5.7,38.095,6.385c4.154.8,5.85,3.894,5.3,8.5-.713,6,3.276,7.815,4.524,4.631,1.178-3,6.871-5.732,10.5-1.945,4.412,4.609-.374,7.188-1.949,9.76-2.7,4.408,1.582,5.632,4.736,5.051,4.513-.831,8.2,6.161,1.969,9.939-3.519,2.133-8.228-1.379-8.626,2.421-.216,2.067,2.507,1.9,4.635,2.564,4.366,1.362,1.678,9.03-3.733,8.082-2.024-.354-3.91-1.821-5.188.081s1.862,2.769.525,6.4c-1.847,5.026-9.185,3.108-10.049-2.4-.627-3.991-5.348-4.107-8.757,1.278-2.059,3.256-6.235,1.847-7.142-.937s1.888-4.275,1.2-6.674c-1.606-5.577-7.721.78-13.362.385-2.677-.188-5.392-2.26-5.116-5.153.352-3.682,3.335-3.984,5.134-5.61,3.639-3.287-3.5-4.124-1.189-8.648C13.341,30.518,18.33,34.574,19.224,31.53Z" transform="translate(-7.536 -6.293)"/>
    <path id="Path_806" data-name="Path 806" class="cls-1" d="M14.747,43.284a3.569,3.569,0,0,1-5,.19c-1.307-1.261-1.373-3.654.677-5.538a11.877,11.877,0,0,1,4.08-2.445c1.622-.572,2.2.289,2.157,1.171-.039.835-.7,2.085-.706,3A4.69,4.69,0,0,1,14.747,43.284Z" transform="translate(-6.454 18.183)"/>
    <path id="Path_807" data-name="Path 807" class="cls-1" d="M38.175,18.9c-.494-1.965,2-3.23,4.229-3.309s5.732.573,4.244,3.5c-.826,1.628-3.617,2.188-5.166,2.07S38.533,20.323,38.175,18.9Z" transform="translate(18.256 1.549)"/>
  </g>
</svg>
