<svg id="more" xmlns="http://www.w3.org/2000/svg" width="64.213" height="64.213" viewBox="0 0 64.213 64.213">
  <defs>
    <style>
      .cls-1 {
        fill: #0054a6;
      }
    </style>
  </defs>
  <g id="Group_903" data-name="Group 903">
    <g id="Group_902" data-name="Group 902">
      <path id="Path_974" data-name="Path 974" class="cls-1" d="M32.107,0A32.107,32.107,0,1,0,64.213,32.107,32.107,32.107,0,0,0,32.107,0Zm0,62.073A29.966,29.966,0,1,1,62.073,32.107,29.966,29.966,0,0,1,32.107,62.073Z"/>
      <path id="Path_975" data-name="Path 975" class="cls-1" d="M270.421,120a6.421,6.421,0,1,0,6.421,6.421A6.421,6.421,0,0,0,270.421,120Zm0,10.7a4.281,4.281,0,1,1,4.281-4.281A4.281,4.281,0,0,1,270.421,130.7Z" transform="translate(-228.683 -103.947)"/>
      <path id="Path_976" data-name="Path 976" class="cls-1" d="M270.421,264a6.421,6.421,0,1,0,6.421,6.421A6.421,6.421,0,0,0,270.421,264Zm0,10.7a4.281,4.281,0,1,1,4.281-4.281A4.281,4.281,0,0,1,270.421,274.7Z" transform="translate(-228.683 -228.683)"/>
      <path id="Path_977" data-name="Path 977" class="cls-1" d="M126.421,120a6.421,6.421,0,1,0,6.421,6.421A6.421,6.421,0,0,0,126.421,120Zm0,10.7a4.281,4.281,0,1,1,4.281-4.281A4.281,4.281,0,0,1,126.421,130.7Z" transform="translate(-103.947 -103.947)"/>
      <path id="Path_978" data-name="Path 978" class="cls-1" d="M126.421,264a6.421,6.421,0,1,0,6.421,6.421A6.421,6.421,0,0,0,126.421,264Zm0,10.7a4.281,4.281,0,1,1,4.281-4.281A4.281,4.281,0,0,1,126.421,274.7Z" transform="translate(-103.947 -228.683)"/>
    </g>
  </g>
</svg>
