<svg xmlns="http://www.w3.org/2000/svg" width="85.052" height="64.293" viewBox="0 0 85.052 64.293">
  <defs>
    <style>
      .cls-1 {
        fill: none;
        stroke: #b3b3b5;
        stroke-linecap: round;
        stroke-linejoin: round;
        stroke-miterlimit: 10;
        stroke-width: 2.052px;
      }
    </style>
  </defs>
  <g id="Press_G" transform="translate(1.026 1.122)">
    <path id="Path_660" data-name="Path 660" class="cls-1" d="M13.451,23.4a9.408,9.408,0,0,0,0,18.817c.148,0,.3,0,.441-.01A11.457,11.457,0,0,0,32.985,48.6a14.751,14.751,0,0,0,25.2.083,11.459,11.459,0,0,0,19-6.476c.146.006.294.01.441.01a9.408,9.408,0,1,0,0-18.817" transform="translate(-4.043 6.421)"/>
    <path id="Path_661" data-name="Path 661" class="cls-1" d="M17.519,23.524a5.77,5.77,0,1,0,0,11.541c.092,0,.181,0,.271-.006A7.029,7.029,0,0,0,29.5,38.98a9.047,9.047,0,0,0,15.458.052,7.029,7.029,0,0,0,11.658-3.971c.09,0,.181.006.271.006a5.77,5.77,0,0,0,0-11.541" transform="translate(4.298 6.557)"/>
    <line id="Line_422" data-name="Line 422" class="cls-1" y1="32.657" transform="translate(41.501)"/>
    <line id="Line_423" data-name="Line 423" class="cls-1" y1="32.657" x2="3.201" transform="translate(31.193)"/>
    <line id="Line_424" data-name="Line 424" class="cls-1" x1="3.234" y1="32.657" transform="translate(48.473)"/>
  </g>
</svg>
