<svg xmlns="http://www.w3.org/2000/svg" width="16.8" height="16.1" viewBox="0 0 16.8 16.1">
  <defs>
    <style>
      .cls-1 {
        fill: #d3d3d3;
      }
    </style>
  </defs>
  <path id="star" class="cls-1" d="M16.757,6.575a.891.891,0,0,0-.769-.614l-4.849-.44L9.222,1.033a.893.893,0,0,0-1.642,0L5.662,5.521l-4.85.44A.894.894,0,0,0,.305,7.524L3.97,10.739,2.89,15.5a.892.892,0,0,0,1.328.965l4.183-2.5,4.181,2.5A.893.893,0,0,0,13.91,15.5L12.83,10.739l3.665-3.214a.893.893,0,0,0,.262-.949Zm0,0" transform="translate(0 -0.491)"/>
</svg>
